<svg xmlns="http://www.w3.org/2000/svg" fill="none" viewBox="0 0 14 14" id="Bell-Notification--Streamline-Core" height="14" width="14">
  <desc>
    Bell Notification Streamline Icon: https://streamlinehq.com
  </desc>
  <g id="bell-notification--alert-bell-ring-notification-alarm">
    <path id="Vector (Stroke)" fill="#2859c5" fill-rule="evenodd" d="M5.25 13.25c0 -0.4142 0.33579 -0.75 0.75 -0.75h2c0.41421 0 0.75 0.3358 0.75 0.75S8.41421 14 8 14H6c-0.41421 0 -0.75 -0.3358 -0.75 -0.75Z" clip-rule="evenodd" stroke-width="1"></path>
    <path id="Union" fill="#8fbffa" fill-rule="evenodd" d="M6.99998 -0.000976562c-1.31088 0 -2.56807 0.520745562 -3.495 1.447676562 -0.92693 0.92693 -1.44768 2.18412 -1.44768 3.495v4.41309c0 0.30924 -0.12284 0.60582 -0.34151 0.82451 -0.24813 0.2481 -0.44309 0.3415 -0.71579 0.3415 -0.276142 0 -0.5 0.2238 -0.5 0.5 0 0.2761 0.223858 0.5 0.5 0.5h12c0.2761 0 0.5 -0.2239 0.5 -0.5 0 -0.2762 -0.2239 -0.5 -0.5 -0.5 -0.2727 0 -0.4677 -0.0934 -0.7158 -0.3415 -0.2187 -0.21869 -0.3415 -0.51527 -0.3415 -0.82451V4.9417c0 -1.31088 -0.5208 -2.56807 -1.4477 -3.495C9.56806 0.519768 8.31086 -0.000976562 6.99998 -0.000976562Z" clip-rule="evenodd" stroke-width="1"></path>
  </g>
</svg>