<svg xmlns="http://www.w3.org/2000/svg" fill="none" viewBox="0 0 14 14" height="14" width="14">
  <g id="users-group-check--users-group-check-team-person-user">
    <path id="Subtract" fill="#8fbffa" fill-rule="evenodd" d="M4.91701 0.0314134C4.19816 0.714628 3.75 1.67998 3.75 2.75s0.44816 2.03537 1.16701 2.71859C4.78102 5.48927 4.64176 5.5 4.5 5.5c-1.51878 0 -2.75 -1.23122 -2.75 -2.75S2.98122 0 4.5 0c0.14176 0 0.28102 0.0107269 0.41701 0.0314134ZM4.33258 6.00305C2.92156 6.99873 2 8.64174 2 10.5c0 0.1753 0.03008 0.3436 0.08535 0.5H0.5c-0.276142 0 -0.5 -0.2239 -0.5 -0.5 0 -2.42924 1.92487 -4.40889 4.33258 -4.49695Zm6.74272 1.76394C10.2529 6.69278 8.95736 6 7.5 6 5.01472 6 3 8.01472 3 10.5c0 0.2761 0.22386 0.5 0.5 0.5h1.89555c0.06356 -0.1569 0.14823 -0.3082 0.25457 -0.45 0.66274 -0.88362 1.91634 -1.06271 2.8 -0.4l0.44922 0.3369 2.17596 -2.71991ZM7.5 0c1.51878 0 2.75 1.23122 2.75 2.75S9.01878 5.5 7.5 5.5 4.75 4.26878 4.75 2.75 5.98122 0 7.5 0Z" clip-rule="evenodd" stroke-width="1"></path>
    <path id="Vector (Stroke)" fill="#2859c5" fill-rule="evenodd" d="M13.7186 7.66438c0.3234 0.25875 0.3759 0.73072 0.1171 1.05417l-4 4.99995c-0.25306 0.3164 -0.71158 0.3746 -1.03566 0.1315l-2 -1.5c-0.33137 -0.2485 -0.39852 -0.7186 -0.15 -1.05 0.24853 -0.3313 0.71863 -0.3985 1.05 -0.15l1.41846 1.0639 3.5459 -4.43239c0.2588 -0.32345 0.7307 -0.37589 1.0542 -0.11713Z" clip-rule="evenodd" stroke-width="1"></path>
  </g>
</svg>