<svg xmlns="http://www.w3.org/2000/svg" fill="none" viewBox="0 0 14 14" id="Manual-Book--Streamline-Core" height="14" width="14">
  <desc>
    Manual Book Streamline Icon: https://streamlinehq.com
  </desc>
  <g id="manual-book">
    <path id="Vector" fill="#2859c5" d="M11.5 13.25V10H3.625C2.72754 10 2 10.7275 2 11.625s0.72754 1.625 1.625 1.625H11.5Z" stroke-width="1"></path>
    <path id="Union" fill="#8fbffa" fill-rule="evenodd" d="M2.75 0C1.7835 0 1 0.783502 1 1.75v9.875C1 12.9367 2.06332 14 3.375 14h8.875c0.4142 0 0.75 -0.3358 0.75 -0.75s-0.3358 -0.75 -0.75 -0.75H3.375c-0.48325 0 -0.875 -0.3918 -0.875 -0.875s0.39175 -0.875 0.875 -0.875H11.5c0.8284 0 1.5 -0.6716 1.5 -1.5V1.5c0 -0.828427 -0.6716 -1.5 -1.5 -1.5H2.75Z" clip-rule="evenodd" stroke-width="1"></path>
    <path id="Union_2" fill="#2859c5" fill-rule="evenodd" d="M7.1707 2.82883c-0.16973 -0.03377 -0.34566 -0.01644 -0.50555 0.04979 -0.15988 0.06622 -0.29654 0.17838 -0.39269 0.32227 -0.09614 0.14389 -0.14746 0.31306 -0.14746 0.48612 0 0.34518 -0.27982 0.625 -0.625 0.625s-0.625 -0.27982 -0.625 -0.625c0 -0.42028 0.12463 -0.83113 0.35813 -1.18058 0.2335 -0.34946 0.56537 -0.62183 0.95367 -0.78266 0.38829 -0.16084 0.81556 -0.20292 1.22777 -0.12093 0.41221 0.082 0.79085 0.28438 1.08803 0.58157 0.29719 0.29719 0.49958 0.67583 0.58157 1.08804 0.08199 0.41221 0.03991 0.83947 -0.12093 1.22776 -0.16083 0.3883 -0.4332 0.72018 -0.78265 0.95368 -0.17257 0.1153 -0.36011 0.20406 -0.55636 0.26437 -0.01628 0.33066 -0.28953 0.59375 -0.62423 0.59375 -0.34518 0 -0.625 -0.27982 -0.625 -0.625v-0.5c0 -0.34518 0.27982 -0.625 0.625 -0.625 0.17306 0 0.34223 -0.05132 0.48612 -0.14746 0.1439 -0.09615 0.25605 -0.2328 0.32227 -0.39269 0.06623 -0.15988 0.08356 -0.33582 0.0498 -0.50555 -0.03376 -0.16973 -0.1171 -0.32564 -0.23947 -0.44802 -0.12237 -0.12237 -0.27828 -0.2057 -0.44802 -0.23946ZM6.125 8.00879c0 0.48325 0.39175 0.875 0.875 0.875s0.875 -0.39175 0.875 -0.875 -0.39175 -0.875 -0.875 -0.875 -0.875 0.39175 -0.875 0.875Z" clip-rule="evenodd" stroke-width="1"></path>
  </g>
</svg>