<svg xmlns="http://www.w3.org/2000/svg" fill="none" viewBox="0 0 14 14" height="14" width="14">
  <g id="view-eye-solo--view-eye-solo-no-symbol">
    <path id="Union" fill="#8fbffa" d="M7 2.125c1.39727 0 2.65329 0.6772 3.6494 1.46582 0.7512 0.59471 1.3842 1.27616 1.8555 1.84766l0.416 0.52832 0.0039 0.00488c0.2152 0.29421 0.3252 0.66125 0.3252 1.02832s-0.11 0.73411 -0.3252 1.02832l-0.0039 0.00488c-0.4781 0.63498 -1.2697 1.58283 -2.2715 2.376C9.65329 11.1978 8.39727 11.875 7 11.875s-2.65329 -0.6772 -3.64941 -1.4658c-1.00184 -0.79317 -1.79338 -1.74102 -2.27149 -2.376l-0.0039 -0.00488C0.860026 7.73411 0.75 7.36707 0.75 7s0.110026 -0.73411 0.3252 -1.02832l0.0039 -0.00488c0.47811 -0.63498 1.26965 -1.58283 2.27149 -2.37598C4.34671 2.8022 5.60273 2.125 7 2.125" stroke-width="1"></path>
    <path id="Ellipse 1980" fill="#2859c5" d="M5 7.005a2 2 0 1 0 4 0 2 2 0 1 0 -4 0" stroke-width="1"></path>
  </g>
</svg>