<svg xmlns="http://www.w3.org/2000/svg" fill="none" viewBox="0 0 14 14" id="Nurse-Assistant-Emergency--Streamline-Core" height="14" width="14">
  <desc>
    Nurse Assistant Emergency Streamline Icon: https://streamlinehq.com
  </desc>
  <g id="nurse-assistant-emergency">
    <path id="Union" fill="#8fbffa" fill-rule="evenodd" d="M2 3c0 -1.65685 1.34315 -3 3 -3s3 1.34315 3 3 -1.34315 3 -3 3 -3 -1.34315 -3 -3Zm3 4c1.18411 0 2.27208 0.41161 3.12864 1.09956v0.0291h-0.20146c-0.92628 0 -1.67718 0.7509 -1.67718 1.67719v1.88835c0 0.5276 0.24364 0.9984 0.62456 1.3058H0.5c-0.276142 0 -0.5 -0.2239 -0.5 -0.5V12c0 -2.76142 2.23858 -5 5 -5Z" clip-rule="evenodd" stroke-width="1"></path>
    <path id="union" fill="#2859c5" d="M9.80583 7.5c-0.23593 0 -0.42719 0.19126 -0.42719 0.42718v1.45148H7.92718c-0.23592 0 -0.42718 0.19126 -0.42718 0.42719v1.88835c0 0.2359 0.19126 0.4272 0.42718 0.4272h1.45146v1.4514c0 0.2359 0.19126 0.4272 0.42719 0.4272h1.88837c0.2359 0 0.4272 -0.1913 0.4272 -0.4272v-1.4514h1.4514c0.2359 0 0.4272 -0.1913 0.4272 -0.4272V9.80585c0 -0.23593 -0.1913 -0.42719 -0.4272 -0.42719l-1.4514 0V7.92718c0 -0.23592 -0.1913 -0.42718 -0.4272 -0.42718H9.80583Z" stroke-width="1"></path>
  </g>
</svg>