<svg xmlns="http://www.w3.org/2000/svg" fill="none" viewBox="0 0 14 14" id="Database-Crypto-Blockchain--Streamline-Core" height="14" width="14">
  <desc>
    Database Crypto Blockchain Streamline Icon: https://streamlinehq.com
  </desc>
  <g id="database-crypto-blockchain--crypto-currency-block-chain-technology-system">
    <path id="Union" fill="#2859c5" fill-rule="evenodd" d="M9.375 1.125c-0.82843 0 -1.5 0.67157 -1.5 1.5v0.25H6.25c-0.41421 0 -0.75 0.33579 -0.75 0.75s0.33579 0.75 0.75 0.75h1.625v0.25c0 0.82843 0.67157 1.5 1.5 1.5h0.25V7.75c0 0.41421 0.33579 0.75 0.75 0.75 0.4142 0 0.75 -0.33579 0.75 -0.75V6.125h0.25c0.8284 0 1.5 -0.67157 1.5 -1.5v-2c0 -0.82843 -0.6716 -1.5 -1.5 -1.5h-2ZM1.5 9.625c0 -0.82843 0.67157 -1.5 1.5 -1.5h1.5c0.82843 0 1.5 0.67157 1.5 1.5h1.75c0.41421 0 0.75 0.33579 0.75 0.75 0 0.4142 -0.33579 0.75 -0.75 0.75H6c0 0.8284 -0.67157 1.5 -1.5 1.5H3c-0.82843 0 -1.5 -0.6716 -1.5 -1.5v-1.5Z" clip-rule="evenodd" stroke-width="1"></path>
    <path id="Union_2" fill="#8fbffa" fill-rule="evenodd" d="M0.5 2C0.5 1.17157 1.17157 0.5 2 0.5h3.25c0.82843 0 1.5 0.67157 1.5 1.5v3.25c0 0.82843 -0.67157 1.5 -1.5 1.5H2c-0.82843 0 -1.5 -0.67157 -1.5 -1.5V2Zm8.25 5.25c-0.82843 0 -1.5 0.67157 -1.5 1.5V12c0 0.8284 0.67157 1.5 1.5 1.5H12c0.8284 0 1.5 -0.6716 1.5 -1.5V8.75c0 -0.82843 -0.6716 -1.5 -1.5 -1.5H8.75Z" clip-rule="evenodd" stroke-width="1"></path>
    <path id="Union_3" fill="#2859c5" fill-rule="evenodd" d="M4.26979 4.99962C4.26323 4.99987 4.25663 5 4.25 5c-0.41421 0 -0.75 -0.33578 -0.75 -0.75 0 -0.40752 0.32501 -0.73912 0.72996 -0.74974 0.00657 -0.00025 0.01317 -0.00038 0.0198 -0.00038 0.41421 0 0.75 0.33578 0.75 0.75 0 0.40751 -0.32502 0.73912 -0.72997 0.74974Z" clip-rule="evenodd" stroke-width="1"></path>
  </g>
</svg>