<svg xmlns="http://www.w3.org/2000/svg" fill="none" viewBox="0 0 14 14" id="User-Full-Body-Edit-Pencil--Streamline-Core" height="14" width="14">
  <desc>
    User Full Body Edit Pencil Streamline Icon: https://streamlinehq.com
  </desc>
  <g id="user-full-body-edit-pencil--actions-edit-geometric-human-pencil-person-single-user-write">
    <path id="Subtract" fill="#8fbffa" fill-rule="evenodd" d="M4 0C2.89543 0 2 0.89543 2 2s0.89543 2 2 2 2 -0.89543 2 -2 -0.89543 -2 -2 -2Zm0 4.5c-2.20914 0 -4 1.79086 -4 4v1.25c0 0.2761 0.223858 0.5 0.5 0.5h1.06224l0.44215 3.3161C2.03751 13.8145 2.2494 14 2.5 14h3c0.10645 0 0.20591 -0.0335 0.28766 -0.091 -0.0412 -0.1922 -0.04918 -0.3924 -0.02106 -0.592l0.26785 -1.9018c0.04282 -0.304 0.16714 -0.5895 0.35821 -0.827l0.0451 -0.3382h0.27878L8 8.96381V8.5c0 -2.20914 -1.79086 -4 -4 -4Z" clip-rule="evenodd" stroke-width="1"></path>
    <path id="Vector (Stroke)" fill="#2859c5" fill-rule="evenodd" d="M11.9105 7c0.1185 -0.00006 0.2321 0.04698 0.3159 0.13076l1.6428 1.64285c0.1744 0.17434 0.1744 0.45701 0 0.63135L9.66389 13.6103c-0.06901 0.069 -0.15874 0.1135 -0.25545 0.1267l-1.90178 0.2589c-0.13857 0.0189 -0.27797 -0.0283 -0.37663 -0.1274 -0.09865 -0.0991 -0.14517 -0.2387 -0.12566 -0.3772l0.26785 -1.9018c0.0135 -0.0958 0.05773 -0.1846 0.12606 -0.2531l4.19642 -4.20531c0.0837 -0.08387 0.1973 -0.13103 0.3158 -0.13109Z" clip-rule="evenodd" stroke-width="1"></path>
  </g>
</svg>