<svg xmlns="http://www.w3.org/2000/svg" fill="none" viewBox="0 0 14 14" id="User-Folder--Streamline-Core" height="14" width="14">
  <desc>
    User Folder Streamline Icon: https://streamlinehq.com
  </desc>
  <g id="user-folder">
    <path id="Union" fill="#8fbffa" fill-rule="evenodd" d="M2 0.5C1.17157 0.5 0.5 1.17157 0.5 2v10c0 0.8284 0.67157 1.5 1.5 1.5h10c0.8284 0 1.5 -0.6716 1.5 -1.5V4c0 -0.82843 -0.6716 -1.5 -1.5 -1.5H6.39039l-0.21595 -0.8638C6.0075 0.968445 5.40753 0.5 4.71922 0.5H2Z" clip-rule="evenodd" stroke-width="1"></path>
    <path id="Union_2" fill="#2859c5" fill-rule="evenodd" d="M6.99998 9c0.9665 0 1.75 -0.7835 1.75 -1.75s-0.7835 -1.75 -1.75 -1.75c-0.96649 0 -1.75 0.7835 -1.75 1.75S6.03349 9 6.99998 9ZM7 10c2.03981 0 3.723 1.5268 3.9691 3.5H3.03094C3.27699 11.5268 4.96019 10 7 10Z" clip-rule="evenodd" stroke-width="1"></path>
  </g>
</svg>