<svg xmlns="http://www.w3.org/2000/svg" fill="none" viewBox="0 0 14 14" id="Calendar-Mark--Streamline-Core" height="14" width="14">
  <desc>
    Calendar Mark Streamline Icon: https://streamlinehq.com
  </desc>
  <g id="calendar-mark--calendar-date-day-month-mark">
    <path id="Union" fill="#8fbffa" d="M2 2.5C1.17157 2.5 0.5 3.17157 0.5 4v8c0 0.8284 0.67157 1.5 1.5 1.5h10c0.8284 0 1.5 -0.6716 1.5 -1.5V4c0 -0.82843 -0.6716 -1.5 -1.5 -1.5H2Z" stroke-width="1"></path>
    <path id="Union_2" fill="#2859c5" fill-rule="evenodd" d="M4.5 1.5c0 -0.552285 -0.44772 -1 -1 -1s-1 0.447715 -1 1v2c0 0.55228 0.44772 1 1 1s1 -0.44772 1 -1v-2Zm7 0c0 -0.552285 -0.4477 -1 -1 -1 -0.55228 0 -1 0.447715 -1 1v2c0 0.55228 0.44772 1 1 1 0.5523 0 1 -0.44772 1 -1v-2Z" clip-rule="evenodd" stroke-width="1"></path>
    <path id="Union_3" fill="#2859c5" fill-rule="evenodd" d="M4.5 6.75c0 0.55228 -0.44772 1 -1 1s-1 -0.44772 -1 -1 0.44772 -1 1 -1 1 0.44772 1 1Zm3.5 0c0 0.55228 -0.44772 1 -1 1s-1 -0.44772 -1 -1 0.44772 -1 1 -1 1 0.44772 1 1Zm-4.5 5c0.55228 0 1 -0.4477 1 -1s-0.44772 -1 -1 -1 -1 0.4477 -1 1 0.44772 1 1 1Zm4.5 -1c0 0.5523 -0.44772 1 -1 1s-1 -0.4477 -1 -1 0.44772 -1 1 -1 1 0.4477 1 1Zm2.5 -3c0.5523 0 1 -0.44772 1 -1s-0.4477 -1 -1 -1c-0.55228 0 -1 0.44772 -1 1s0.44772 1 1 1Z" clip-rule="evenodd" stroke-width="1"></path>
  </g>
</svg>