<svg xmlns="http://www.w3.org/2000/svg" fill="none" viewBox="0 0 14 14" id="Layers-3--Streamline-Core" height="14" width="14">
  <desc>
    Layers 3 Streamline Icon: https://streamlinehq.com
  </desc>
  <g id="layers-3--design-front-layer-layers-select-send-to-top-align">
    <path id="Rectangle 468" fill="#2859c5" d="M0 5.5C0 4.67157 0.671573 4 1.5 4h8c0.8284 0 1.5 0.67157 1.5 1.5v6c0 0.8284 -0.6716 1.5 -1.5 1.5h-8C0.671573 13 0 12.3284 0 11.5v-6Z" stroke-width="1"></path>
    <path id="Rectangle 467" fill="#8fbffa" d="M3 2.5C3 1.67157 3.67157 1 4.5 1h8c0.8284 0 1.5 0.67157 1.5 1.5v6c0 0.82843 -0.6716 1.5 -1.5 1.5h-8C3.67157 10 3 9.32843 3 8.5v-6Z" stroke-width="1"></path>
  </g>
</svg>