<svg xmlns="http://www.w3.org/2000/svg" fill="none" viewBox="0 0 14 14" id="Copy-1--Streamline-Core" height="14" width="14">
  <desc>
    Copy 1 Streamline Icon: https://streamlinehq.com
  </desc>
  <g id="copy-1">
    <path id="Union" fill="#2859c5" fill-rule="evenodd" d="M2 0.5C1.17157 0.5 0.5 1.17157 0.5 2v7.5c0 0.8284 0.67157 1.5 1.5 1.5h7.5c0.8284 0 1.5 -0.6716 1.5 -1.5V2c0 -0.82843 -0.6716 -1.5 -1.5 -1.5H2Z" clip-rule="evenodd" stroke-width="1"></path>
    <path id="Union_2" fill="#8fbffa" fill-rule="evenodd" d="M4.5 3C3.67157 3 3 3.67157 3 4.5V12c0 0.8284 0.67157 1.5 1.5 1.5H12c0.8284 0 1.5 -0.6716 1.5 -1.5V4.5c0 -0.82843 -0.6716 -1.5 -1.5 -1.5H4.5Z" clip-rule="evenodd" stroke-width="1"></path>
  </g>
</svg>