<svg xmlns="http://www.w3.org/2000/svg" fill="none" viewBox="0 0 14 14" height="14" width="14">
  <g id="archive-box-miscellaneous--archive-box-miscellaneous-content-keep">
    <path id="Subtract" fill="#2859c5" d="M2.37488 7.25h-0.17871L1.02136 3.3418l-0.01953 -0.09961c-0.020992 -0.23164 0.12309 -0.45385 0.35449 -0.52344l2.16895 -0.65332z" stroke-width="1"></path>
    <path id="Union" fill="#2859c5" d="M5.77483 0.0122904 12.6088 1.52987l0.0957 0.03125c0.2123 0.09486 0.3355 0.32862 0.2832 0.56445l-1.7334 7.81055c-0.06 0.26928 -0.3273 0.43858 -0.5967 0.37888L3.82365 8.79745c-0.26929 -0.05994 -0.43945 -0.32635 -0.37988 -0.59571L5.17815 0.391197 5.2094 0.295493c0.09484 -0.2124588 0.32946 -0.3356026 0.56543 -0.2832026" stroke-width="1"></path>
    <path id="Union_2" fill="#8fbffa" d="M12.5 7.25c0.2761 0 0.5 0.22386 0.5 0.5v4.75c0 0.8284 -0.6716 1.5 -1.5 1.5h-9c-0.82843 0 -1.5 -0.6716 -1.5 -1.5V7.75l0.00977 -0.10059C1.05629 7.42145 1.25829 7.25 1.5 7.25z" stroke-width="1"></path>
    <path id="Union_3" fill="#2859c5" d="M8.875 8.5c0.34518 0 0.625 0.27982 0.625 0.625s-0.27982 0.625 -0.625 0.625h-3.75c-0.34518 0 -0.625 -0.27982 -0.625 -0.625s0.27982 -0.625 0.625 -0.625z" stroke-width="1"></path>
  </g>
</svg>