<svg xmlns="http://www.w3.org/2000/svg" fill="none" viewBox="0 0 14 14" id="Cog-1--Streamline-Core" height="14" width="14">
  <desc>
    Cog 1 Streamline Icon: https://streamlinehq.com
  </desc>
  <g id="cog-1--work-loading-cog-gear-settings-machine">
    <path id="Subtract" fill="#8fbffa" fill-rule="evenodd" d="M5.55692 0.689231 5.09384 1.88462l-1.59385 0.90461 -1.27077 -0.19385c-0.21159 -0.02872 -0.42695 0.00612 -0.61871 0.10008 -0.19175 0.09396 -0.35125 0.2428 -0.45821 0.42762l-0.430769 0.75384c-0.110383 0.18776 -0.16124 0.40458 -0.145859 0.62184 0.015381 0.21726 0.096278 0.42475 0.232013 0.59509l0.807695 1.00153v1.80924L0.829223 8.90615c-0.135735 0.17034 -0.216631 0.37783 -0.232012 0.59509 -0.015382 0.21726 0.035475 0.43408 0.145858 0.62186l0.430771 0.7538c0.10696 0.1848 0.26646 0.3337 0.45821 0.4276 0.19175 0.094 0.40711 0.1288 0.61871 0.1001l1.27077 -0.1938 1.57231 0.9046 0.46308 1.1954c0.07809 0.2024 0.21549 0.3765 0.3942 0.4994 0.17871 0.123 0.3904 0.1892 0.60733 0.1898h0.90462c0.21694 -0.0006 0.42862 -0.0668 0.60733 -0.1898 0.17871 -0.1229 0.31611 -0.297 0.39421 -0.4994l0.46307 -1.1954L10.5 11.2108l1.2708 0.1938c0.2116 0.0287 0.4269 -0.0061 0.6187 -0.1001 0.1917 -0.0939 0.3512 -0.2428 0.4582 -0.4276l0.4308 -0.7538c0.1103 -0.18778 0.1612 -0.4046 0.1458 -0.62186 -0.0154 -0.21726 -0.0963 -0.42475 -0.232 -0.59509l-0.8077 -1.00153V6.09538l0.7862 -1.00153c0.1357 -0.17034 0.2166 -0.37783 0.232 -0.59509 0.0154 -0.21726 -0.0355 -0.43408 -0.1459 -0.62184l-0.4308 -0.75384c-0.1069 -0.18482 -0.2664 -0.33366 -0.4582 -0.42762 -0.1917 -0.09396 -0.4071 -0.1288 -0.6187 -0.10008l-1.2707 0.19385 -1.57235 -0.90461L8.44307 0.689231c-0.0781 -0.202393 -0.2155 -0.376481 -0.39421 -0.499464C7.87015 0.0667842 7.65847 0.00064083 7.44153 0h-0.88308c-0.21693 0.00064083 -0.42862 0.0667842 -0.60733 0.189767 -0.17871 0.122983 -0.31611 0.297071 -0.3942 0.499464ZM7 9.25c1.24264 0 2.25 -1.00736 2.25 -2.25S8.24264 4.75 7 4.75 4.75 5.75736 4.75 7 5.75736 9.25 7 9.25Z" clip-rule="evenodd" stroke-width="1"></path>
  </g>
</svg>