<svg xmlns="http://www.w3.org/2000/svg" fill="none" viewBox="0 0 14 14" height="14" width="14">
  <g id="portfolio--portfolio-resume-profile-employee">
    <path id="Union" fill="#8fbffa" d="M12.5 2.5c0.8284 0 1.5 0.67158 1.5 1.5v8.5c0 0.8284 -0.6716 1.5 -1.5 1.5h-11C0.671577 14 0 13.3284 0 12.5V4c0 -0.82842 0.671571 -1.5 1.5 -1.5z" stroke-width="1"></path>
    <path id="Subtract" fill="#2859c5" d="M9 0c0.46414 0 0.90912 0.184514 1.2373 0.512695 0.3282 0.328181 0.5127 0.773165 0.5127 1.237305v0.75h-1.5v-0.75c0 -0.0663 -0.02636 -0.12987 -0.07324 -0.17676C9.12987 1.52636 9.0663 1.5 9 1.5H5c-0.0663 0 -0.12987 0.02636 -0.17676 0.07324 -0.04688 0.0469 -0.07324 0.11046 -0.07324 0.17676v0.75h-1.5v-0.75c0 -0.46414 0.18453 -0.909124 0.5127 -1.237305C4.09088 0.184515 4.53586 0 5 0z" stroke-width="1"></path>
    <path id="Subtract_2" fill="#2859c5" d="M7 10c1.76725 0 3.2959 1.0185 4.0322 2.5H2.96777C3.70411 11.0185 5.23281 10.0001 7 10m0 -5c1.10518 0 2.00081 0.89584 2.00098 2.00098 0 1.10528 -0.8957 2.00195 -2.00098 2.00195 -1.10522 -0.00007 -2.00098 -0.89671 -2.00098 -2.00195C4.99919 5.89588 5.89488 5.00007 7 5" stroke-width="1"></path>
  </g>
</svg>