<svg xmlns="http://www.w3.org/2000/svg" fill="none" viewBox="0 0 14 14" id="Brightness-4--Streamline-Core" height="14" width="14">
  <desc>
    Brightness 4 Streamline Icon: https://streamlinehq.com
  </desc>
  <g id="brightness-4--bright-adjust-brightness-adjustment-sun-raise-controls-dot">
    <path id="Ellipse 617" fill="#2859c5" d="M3.75 7a3.25 3.25 0 1 0 6.5 0 3.25 3.25 0 1 0 -6.5 0" stroke-width="1"></path>
    <path id="Union" fill="#8fbffa" fill-rule="evenodd" d="M7.75 0.75C7.75 0.335786 7.41421 0 7 0s-0.75 0.335786 -0.75 0.75v1c0 0.41421 0.33579 0.75 0.75 0.75s0.75 -0.33579 0.75 -0.75v-1Zm0 11.5c0 -0.4142 -0.33579 -0.75 -0.75 -0.75s-0.75 0.3358 -0.75 0.75v1c0 0.4142 0.33579 0.75 0.75 0.75s0.75 -0.3358 0.75 -0.75v-1ZM11.5 7c0 -0.41421 0.3358 -0.75 0.75 -0.75h1c0.4142 0 0.75 0.33579 0.75 0.75s-0.3358 0.75 -0.75 0.75h-1c-0.4142 0 -0.75 -0.33579 -0.75 -0.75ZM0.75 6.25C0.335786 6.25 0 6.58579 0 7s0.335786 0.75 0.75 0.75h1c0.41421 0 0.75 -0.33579 0.75 -0.75s-0.33579 -0.75 -0.75 -0.75h-1Zm1.30024 -4.19976c0.29289 -0.2929 0.76776 -0.2929 1.06066 0l0.86066 0.86066c0.29289 0.29289 0.29289 0.76776 0 1.06066 -0.2929 0.29289 -0.76777 0.29289 -1.06066 0l-0.86066 -0.86066c-0.2929 -0.2929 -0.2929 -0.76777 0 -1.06066Zm9.03886 7.97806c-0.2929 -0.29293 -0.7678 -0.29293 -1.0607 0 -0.29285 0.2929 -0.29285 0.7677 0 1.0606l0.8607 0.8607c0.2929 0.2929 0.7678 0.2929 1.0607 0 0.2929 -0.2929 0.2929 -0.7678 0 -1.0607l-0.8607 -0.8606Zm0.8607 -7.97806c0.2929 0.29289 0.2929 0.76776 0 1.06066l-0.8607 0.86066c-0.2929 0.29289 -0.7678 0.29289 -1.0607 0 -0.29285 -0.2929 -0.29285 -0.76777 0 -1.06066l0.8607 -0.86066c0.2929 -0.2929 0.7678 -0.2929 1.0607 0ZM3.97156 11.0889c0.29289 -0.2929 0.29289 -0.7677 0 -1.0606 -0.2929 -0.29293 -0.76777 -0.29293 -1.06066 0l-0.86066 0.8606c-0.2929 0.2929 -0.2929 0.7678 0 1.0607 0.29289 0.2929 0.76776 0.2929 1.06066 0l0.86066 -0.8607Z" clip-rule="evenodd" stroke-width="1"></path>
  </g>
</svg>