<svg xmlns="http://www.w3.org/2000/svg" fill="none" viewBox="0 0 14 14" height="14" width="14">
  <g id="user-supervisor-account--user-supervisor-account-company-corporation-hierachy-corporate-organization">
    <path id="Subtract" fill="#8fbffa" fill-rule="evenodd" d="M8.32086 9.56189c-0.4721 -0.49877 -0.7748 -1.15953 -0.81603 -1.89018C6.76831 7.24455 5.91271 7 5 7c-2.76142 0 -5 2.23858 -5 5v0.5c0 0.2761 0.223858 0.5 0.5 0.5h5.52746c0.16384 -1.482 1.04739 -2.7472 2.2934 -3.43811Z" clip-rule="evenodd" stroke-width="1"></path>
    <path id="Union" fill="#8fbffa" fill-rule="evenodd" d="M5 0C3.34315 0 2 1.34315 2 3s1.34315 3 3 3 3 -1.34315 3 -3 -1.34315 -3 -3 -3Z" clip-rule="evenodd" stroke-width="1"></path>
    <path id="Union_2" fill="#2859c5" fill-rule="evenodd" d="M10.5 5.5c-1.10457 0 -2 0.89543 -2 2s0.89543 2 2 2c1.1046 0 2 -0.89543 2 -2s-0.8954 -2 -2 -2Zm0 4.5C8.567 10 7 11.567 7 13.5c0 0.2761 0.22386 0.5 0.5 0.5h6c0.2761 0 0.5 -0.2239 0.5 -0.5 0 -1.933 -1.567 -3.5 -3.5 -3.5Z" clip-rule="evenodd" stroke-width="1"></path>
  </g>
</svg>