<svg xmlns="http://www.w3.org/2000/svg" fill="none" viewBox="0 0 14 14" height="14" width="14">
  <g id="list-checklist-event-to-do-unchecked--list-checklist-event-to-do-unchecked-box-radio-content">
    <path id="Union" fill="#8fbffa" fill-rule="evenodd" d="M8.25 1.5c-0.41421 0 -0.75 0.33579 -0.75 0.75s0.33579 0.75 0.75 0.75h4.5c0.4142 0 0.75 -0.33579 0.75 -0.75s-0.3358 -0.75 -0.75 -0.75h-4.5Zm0 3.16675c-0.41421 0 -0.75 0.33578 -0.75 0.75 0 0.41421 0.33579 0.75 0.75 0.75h4.5c0.4142 0 0.75 -0.33579 0.75 -0.75 0 -0.41422 -0.3358 -0.75 -0.75 -0.75h-4.5ZM7.5 8.5835c0 -0.41422 0.33579 -0.75 0.75 -0.75h4.5c0.4142 0 0.75 0.33578 0.75 0.75 0 0.41421 -0.3358 0.75 -0.75 0.75h-4.5c-0.41421 0 -0.75 -0.33579 -0.75 -0.75ZM8.25 11c-0.41421 0 -0.75 0.3358 -0.75 0.75s0.33579 0.75 0.75 0.75h4.5c0.4142 0 0.75 -0.3358 0.75 -0.75s-0.3358 -0.75 -0.75 -0.75h-4.5Z" clip-rule="evenodd" stroke-width="1"></path>
    <path id="Union_2" fill="#2859c5" fill-rule="evenodd" d="M5 0.5c0.55228 0 1 0.447715 1 1V5c0 0.55228 -0.44772 1 -1 1H1.5c-0.552285 0 -1 -0.44772 -1 -1V1.5c0 -0.552285 0.447715 -1 1 -1H5ZM5 8c0.55228 0 1 0.44772 1 1v3.5c0 0.5523 -0.44772 1 -1 1H1.5c-0.552285 0 -1 -0.4477 -1 -1V9c0 -0.55228 0.447715 -1 1 -1H5Z" clip-rule="evenodd" stroke-width="1"></path>
  </g>
</svg>