<svg xmlns="http://www.w3.org/2000/svg" fill="none" viewBox="0 0 14 14" height="14" width="14">
  <g id="ai-spark-starlight--ai-spark-starlight-generating-creation-automate">
    <path id="Union" fill="#8fbffa" fill-rule="evenodd" d="M8.08898 1.38744C7.82229 0.198489 6.1421 0.206699 5.88584 1.3971l-0.03999 0.18576C5.36603 3.81172 3.60987 5.51695 1.4105 5.90603c-1.214002 0.21477 -1.213995 1.97318 0 2.18794 2.19937 0.38908 3.95553 2.09433 4.43535 4.32313l0.03999 0.1858c0.25626 1.1904 1.93645 1.1986 2.20314 0.0097l0.04856 -0.2165c0.49778 -2.2193 2.25506 -3.91088 4.44946 -4.29906 1.2173 -0.21536 1.2173 -1.97871 0 -2.19407 -2.1944 -0.38819 -3.95168 -2.07979 -4.44946 -4.29904l-0.04856 -0.21649Z" clip-rule="evenodd" stroke-width="1"></path>
    <path id="Union_2" fill="#2859c5" fill-rule="evenodd" d="M1.78033 0.71967c-0.29289 -0.292893 -0.76777 -0.292893 -1.06066 0 -0.292893 0.29289 -0.292893 0.76777 0 1.06066l1.5 1.5c0.29289 0.29289 0.76777 0.29289 1.06066 0s0.29289 -0.76777 0 -1.06066l-1.5 -1.5Zm10.43937 0c0.2929 -0.292893 0.7677 -0.292893 1.0606 0 0.2929 0.29289 0.2929 0.76777 0 1.06066l-1.5 1.5c-0.2929 0.29289 -0.7677 0.29289 -1.0606 0 -0.2929 -0.29289 -0.2929 -0.76777 0 -1.06066l1.5 -1.5ZM0.71967 13.2803c0.29289 0.2929 0.76777 0.2929 1.06066 0l1.5 -1.5c0.29289 -0.2929 0.29289 -0.7677 0 -1.0606 -0.29289 -0.2929 -0.76777 -0.2929 -1.06066 0l-1.5 1.5c-0.292893 0.2929 -0.292893 0.7677 0 1.0606Zm11.50003 0c0.2929 0.2929 0.7677 0.2929 1.0606 0 0.2929 -0.2929 0.2929 -0.7677 0 -1.0606l-1.5 -1.5c-0.2929 -0.2929 -0.7677 -0.2929 -1.0606 0 -0.2929 0.2929 -0.2929 0.7677 0 1.0606l1.5 1.5Z" clip-rule="evenodd" stroke-width="1"></path>
  </g>
</svg>