<svg xmlns="http://www.w3.org/2000/svg" fill="none" viewBox="0 0 14 14" id="Broken-Link-1--Streamline-Core" height="14" width="14">
  <desc>
    Broken Link 1 Streamline Icon: https://streamlinehq.com
  </desc>
  <g id="broken-link-1--break-broken-hyperlink-link-remove-unlink-chain">
    <path id="Union" fill="#8fbffa" fill-rule="evenodd" d="M12.6715 1.32843c-1.7713 -1.771241 -4.64302 -1.771237 -6.41425 0 -0.39053 0.39052 -0.39053 1.02369 0 1.41421 0.39052 0.39053 1.02369 0.39053 1.41421 0 0.99019 -0.99019 2.59564 -0.99019 3.58574 0 0.9902 0.99019 0.9902 2.5956 0 3.58579 -0.3905 0.39052 -0.3905 1.02369 0 1.41421 0.3906 0.39053 1.0237 0.39053 1.4143 0 1.7712 -1.77124 1.7712 -4.64298 0 -6.41421ZM9.20711 4.79289c0.39052 0.39053 0.39052 1.02369 0 1.41422l-3 3c-0.39053 0.39052 -1.02369 0.39052 -1.41422 0 -0.39052 -0.39053 -0.39052 -1.02369 0 -1.41422l3 -3c0.39053 -0.39052 1.02369 -0.39052 1.41422 0ZM2.74264 6.25737c0.39053 0.39052 0.39053 1.02369 0 1.41421 -0.99019 0.99019 -0.99019 2.59562 0 3.58582 0.99019 0.9902 2.5956 0.9902 3.58579 0 0.39052 -0.3906 1.02369 -0.3906 1.41421 0 0.39053 0.3905 0.39053 1.0237 0 1.4142 -1.77123 1.7712 -4.64298 1.7712 -6.41421 0 -1.77124 -1.7713 -1.771239 -4.64299 0 -6.41423 0.39052 -0.39052 1.02369 -0.39052 1.41421 0Z" clip-rule="evenodd" stroke-width="1"></path>
    <path id="Union_2" fill="#2859c5" fill-rule="evenodd" d="M5 1.25C5 0.835786 4.66421 0.5 4.25 0.5s-0.75 0.335786 -0.75 0.75v1.5c0 0.41421 0.33579 0.75 0.75 0.75S5 3.16421 5 2.75v-1.5Zm-2.71967 -0.03033c-0.29289 -0.292893 -0.76777 -0.292893 -1.06066 0 -0.292893 0.29289 -0.292893 0.76777 0 1.06066l0.5 0.5c0.29289 0.29289 0.76777 0.29289 1.06066 0s0.29289 -0.76777 0 -1.06066l-0.5 -0.5ZM0.5 4.25c0 -0.41421 0.335786 -0.75 0.75 -0.75h1.5c0.41421 0 0.75 0.33579 0.75 0.75S3.16421 5 2.75 5h-1.5C0.835786 5 0.5 4.66421 0.5 4.25ZM11.75 9c-0.4142 0 -0.75 0.33579 -0.75 0.75 0 0.4142 0.3358 0.75 0.75 0.75h1c0.4142 0 0.75 -0.3358 0.75 -0.75 0 -0.41421 -0.3358 -0.75 -0.75 -0.75h-1Zm1.0303 2.7197 -0.5 -0.5c-0.2929 -0.2929 -0.7677 -0.2929 -1.0606 0 -0.2929 0.2929 -0.2929 0.7677 0 1.0606l0.5 0.5c0.2929 0.2929 0.7677 0.2929 1.0606 0 0.2929 -0.2929 0.2929 -0.7677 0 -1.0606ZM9.75 11c0.4142 0 0.75 0.3358 0.75 0.75v1c0 0.4142 -0.3358 0.75 -0.75 0.75 -0.41421 0 -0.75 -0.3358 -0.75 -0.75v-1c0 -0.4142 0.33579 -0.75 0.75 -0.75Z" clip-rule="evenodd" stroke-width="1"></path>
  </g>
</svg>