<svg xmlns="http://www.w3.org/2000/svg" fill="none" viewBox="0 0 14 14" id="Web-Hierarchy--Streamline-Core" height="14" width="14">
  <desc>
    Web Hierarchy Streamline Icon: https://streamlinehq.com
  </desc>
  <g id="web-hierarchy--web-hierarchy-dropdown-menu">
    <path id="Union" fill="#2859c5" fill-rule="evenodd" d="M2.5 0.75C2.5 0.335786 2.16421 0 1.75 0S1 0.335786 1 0.75V11c0 0.9665 0.7835 1.75 1.75 1.75H6c0.41421 0 0.75 -0.3358 0.75 -0.75s-0.33579 -0.75 -0.75 -0.75H2.75c-0.13807 0 -0.25 -0.1119 -0.25 -0.25V7.75H6c0.41421 0 0.75 -0.33579 0.75 -0.75s-0.33579 -0.75 -0.75 -0.75H2.5v-3.5H6c0.41421 0 0.75 -0.33579 0.75 -0.75s-0.33579 -0.75 -0.75 -0.75H2.5v-0.5Z" clip-rule="evenodd" stroke-width="1"></path>
    <path id="Union_2" fill="#8fbffa" fill-rule="evenodd" d="M5.5 2.5v-1C5.5 0.671573 6.17157 0 7 0h4.5c0.8284 0 1.5 0.671572 1.5 1.5v1c0 0.82843 -0.6716 1.5 -1.5 1.5L7 4c-0.82843 0 -1.5 -0.67157 -1.5 -1.5Zm0 4v1C5.5 8.32843 6.17157 9 7 9h4.5c0.8284 0 1.5 -0.67157 1.5 -1.5v-1c0 -0.82843 -0.6716 -1.5 -1.5 -1.5L7 5c-0.82843 0 -1.5 0.67157 -1.5 1.5Zm0 5v1c0 0.8284 0.67157 1.5 1.5 1.5h4.5c0.8284 0 1.5 -0.6716 1.5 -1.5v-1c0 -0.8284 -0.6716 -1.5 -1.5 -1.5H7c-0.82843 0 -1.5 0.6716 -1.5 1.5Z" clip-rule="evenodd" stroke-width="1"></path>
  </g>
</svg>