<svg xmlns="http://www.w3.org/2000/svg" fill="none" viewBox="0 0 14 14" id="Angled-Moon--Streamline-Core" height="14" width="14">
  <desc>
    Angled Moon Streamline Icon: https://streamlinehq.com
  </desc>
  <g id="angled-moon--astronomy-moon-science-space-crescent">
    <path id="Union" fill="#8fbffa" fill-rule="evenodd" d="M6.88595 0.761859c0.10303 -0.167608 0.09819 -0.380058 -0.01236 -0.542802 -0.11055 -0.1627435 -0.30627 -0.2455269 -0.50005 -0.21150811C4.64836 0.310411 3.0977 1.24463 2.02363 2.62821 0.949553 4.0118 0.428981 5.74567 0.563319 7.49207c0.134339 1.7464 0.913971 3.38023 2.187011 4.58333 1.27305 1.203 2.94835 1.8891 4.69954 1.9245l0 0.0001 0.00885 0c1.19928 0.0031 2.379 -0.3038 3.42478 -0.8909 1.0458 -0.587 1.9221 -1.4344 2.544 -2.4598 0.1013 -0.167 0.0961 -0.3776 -0.0133 -0.5394 -0.1095 -0.16177 -0.303 -0.24503 -0.4957 -0.21319 -0.3045 0.05032 -0.6123 0.07815 -0.9209 0.08328 -1.0711 -0.00751 -2.12104 -0.29926 -3.0425 -0.84546 -0.92303 -0.54713 -1.68395 -1.3299 -2.20473 -2.26805 -0.52077 -0.93815 -0.78268 -1.99793 -0.75885 -3.07067 0.02382 -1.07274 0.33252 -2.11984 0.89443 -3.033951Z" clip-rule="evenodd" stroke-width="1"></path>
  </g>
</svg>