<svg xmlns="http://www.w3.org/2000/svg" fill="none" viewBox="0 0 14 14" id="Recycle-Bin-2--Streamline-Core" height="14" width="14">
  <desc>
    Recycle Bin 2 Streamline Icon: https://streamlinehq.com
  </desc>
  <g id="recycle-bin-2--remove-delete-empty-bin-trash-garbage">
    <path id="Union" fill="#8fbffa" fill-rule="evenodd" d="M2.5 2.82312c-0.27614 0 -0.5 0.22386 -0.5 0.5v9.14448c0 0.3996 0.15613 0.7843 0.43654 1.0692 0.28066 0.2852 0.66304 0.4469 1.06346 0.4469h7c0.4004 0 0.7828 -0.1617 1.0635 -0.4469 0.2804 -0.2849 0.4365 -0.6696 0.4365 -1.0692V3.32312c0 -0.27614 -0.2239 -0.5 -0.5 -0.5h-9Z" clip-rule="evenodd" stroke-width="1"></path>
    <path id="Union_2" fill="#2859c5" fill-rule="evenodd" d="M5.875 7.12427c0 -0.34518 -0.27982 -0.625 -0.625 -0.625s-0.625 0.27982 -0.625 0.625v4.00153c0 0.3451 0.27982 0.625 0.625 0.625s0.625 -0.2799 0.625 -0.625V7.12427Zm3.5 0c0 -0.34518 -0.27982 -0.625 -0.625 -0.625s-0.625 0.27982 -0.625 0.625v4.00153c0 0.3451 0.27982 0.625 0.625 0.625s0.625 -0.2799 0.625 -0.625V7.12427Z" clip-rule="evenodd" stroke-width="1"></path>
    <path id="Union_3" fill="#2859c5" fill-rule="evenodd" d="M6.99999 1.5c-0.46413 0 -0.90925 0.18437 -1.23743 0.51256 -0.20737 0.20737 -0.35732 0.46141 -0.43962 0.73744h3.35411c-0.08231 -0.27603 -0.23226 -0.53007 -0.43962 -0.73744C7.90924 1.68437 7.46412 1.5 6.99999 1.5Zm3.21131 1.25c-0.1054 -0.67679 -0.42284 -1.30773 -0.91321 -1.798097C8.6886 0.34241 7.86195 0 6.99999 0c-0.86195 0 -1.6886 0.34241 -2.29809 0.951903C4.21153 1.44227 3.89404 2.07321 3.78867 2.75H1.25c-0.414214 0 -0.75 0.33579 -0.75 0.75s0.335786 0.75 0.75 0.75h11.5c0.4142 0 0.75 -0.33579 0.75 -0.75s-0.3358 -0.75 -0.75 -0.75h-2.5387Z" clip-rule="evenodd" stroke-width="1"></path>
  </g>
</svg>