<svg xmlns="http://www.w3.org/2000/svg" fill="none" viewBox="0 0 14 14" height="14" width="14">
  <g id="folder-document-copy-duplicate--folder-document-copy-duplicate-stack-directory">
    <path id="Union" fill="#2859c5" fill-rule="evenodd" d="M1.25 3.5C0.559644 3.5 0 4.05964 0 4.75v7C0 12.4404 0.559644 13 1.25 13h9c0.6904 0 1.25 -0.5596 1.25 -1.25v-5.5c0 -0.69036 -0.5596 -1.25 -1.25 -1.25H4.93019l-0.21509 -0.64528C4.54495 3.84429 4.06728 3.5 3.52924 3.5H1.25Z" clip-rule="evenodd" stroke-width="1"></path>
    <path id="Union_2" fill="#8fbffa" fill-rule="evenodd" d="M3.75 1c-0.69036 0 -1.25 0.55964 -1.25 1.25v7c0 0.69036 0.55964 1.25 1.25 1.25h9c0.6904 0 1.25 -0.55964 1.25 -1.25v-5.5c0 -0.69036 -0.5596 -1.25 -1.25 -1.25H7.43019l-0.21509 -0.64528C7.04495 1.34429 6.56728 1 6.02924 1H3.75Z" clip-rule="evenodd" stroke-width="1"></path>
  </g>
</svg>